<?xml version="1.0" standalone="no"?>
<!DOCTYPE svg PUBLIC "-//W3C//DTD SVG 20010904//EN"
 "http://www.w3.org/TR/2001/REC-SVG-20010904/DTD/svg10.dtd">
<svg version="1.0" xmlns="http://www.w3.org/2000/svg"
 width="1082.000000pt" height="340.000000pt" viewBox="0 0 1082.000000 340.000000"
 preserveAspectRatio="xMidYMid meet">

<g transform="translate(0.000000,340.000000) scale(0.100000,-0.100000)"
fill="#000000" stroke="none">
<path d="M374 3297 c-2 -7 -3 -76 -2 -152 l3 -140 358 -3 357 -2 -5 -133 c-3
-72 -9 -278 -15 -457 -6 -179 -15 -455 -20 -615 -5 -159 -14 -436 -20 -615 -6
-179 -15 -435 -20 -570 -6 -135 -10 -273 -10 -307 l0 -63 551 0 552 0 -7 118
c-4 64 -11 214 -17 332 -5 118 -14 312 -19 430 -5 118 -14 314 -20 435 -49
1062 -63 1403 -61 1432 1 10 84 13 364 15 l362 3 0 150 0 150 -1163 3 c-948 2
-1164 0 -1168 -11z"/>
<path d="M5293 2260 c-389 -70 -725 -384 -830 -778 -23 -84 -26 -118 -27 -252
0 -209 27 -327 120 -513 89 -177 268 -358 439 -444 234 -119 580 -138 823 -46
79 29 203 94 200 104 -2 4 -30 55 -63 113 l-60 105 -58 1 c-81 0 -202 27 -266
58 -153 75 -271 277 -259 442 l3 45 603 3 602 2 0 104 c0 360 -112 611 -370
828 -111 94 -245 164 -390 204 -81 22 -119 27 -255 30 -88 1 -183 -1 -212 -6z
m248 -210 c120 -22 244 -111 294 -210 102 -203 19 -463 -179 -560 -302 -149
-638 91 -594 425 26 194 195 342 404 354 12 0 46 -4 75 -9z"/>
<path d="M7545 2254 c-200 -44 -346 -120 -491 -257 -214 -202 -318 -409 -343
-684 -13 -149 11 -336 59 -461 139 -360 406 -595 753 -663 182 -35 408 -21
567 36 67 23 200 92 200 103 0 3 -27 53 -60 112 l-60 107 -93 6 c-163 11 -263
54 -358 154 -74 77 -117 170 -130 280 -6 46 -8 91 -5 99 5 12 93 14 606 14
l600 0 2 58 c11 364 -91 623 -330 842 -127 117 -268 194 -440 241 -105 28
-374 36 -477 13z m373 -239 c128 -60 209 -166 231 -302 35 -223 -119 -438
-341 -474 -181 -29 -361 67 -438 233 -32 67 -34 81 -35 173 0 92 3 105 32 167
102 215 338 302 551 203z"/>
<path d="M2884 2188 c-5 -7 -16 -215 -26 -463 -9 -247 -24 -605 -32 -795 -9
-190 -19 -423 -22 -518 l-7 -172 556 0 557 0 0 53 c0 28 -12 228 -25 442 -15
222 -23 416 -19 450 24 216 145 370 378 481 l96 45 0 226 0 226 -42 -7 c-22
-4 -75 -21 -115 -38 -86 -35 -158 -97 -270 -231 l-73 -88 0 109 c0 60 -3 150
-6 200 l-7 92 -468 0 c-360 0 -470 -3 -475 -12z"/>
<path d="M9125 2188 c-5 -17 -22 -361 -40 -848 -16 -408 -30 -751 -42 -973
l-6 -127 562 0 561 0 -5 53 c-11 107 -45 735 -45 832 0 55 6 123 14 151 19 70
71 167 122 223 55 61 174 141 263 177 l71 29 0 228 c0 219 -1 227 -20 227 -40
0 -184 -61 -235 -99 -50 -38 -162 -157 -216 -230 l-24 -33 -5 199 -5 198 -473
3 c-373 2 -473 0 -477 -10z"/>
</g>
</svg>
